<svg xmlns="http://www.w3.org/2000/svg" width="500" height="250" viewBox="0 0 500 250">
  <g fill="none" fill-rule="evenodd">
    <path d="M35 143c34-8 87-20 158-36 77-17 140-28 188-32 22-2 41 3 58 15l18 13-26 11-39 4-54 53c-8 8-18 13-30 13h-30l22-44-88 10-48 52h-29l18-53-71 9c-16 2-31-5-40-18l-7-10z" fill="#f7f7f7" stroke="#9b9b9b" stroke-width="6"/>
    <ellipse cx="112" cy="167" rx="24" ry="24" fill="#8d8d8d"/>
    <ellipse cx="112" cy="167" rx="12" ry="12" fill="#6b6b6b"/>
    <ellipse cx="358" cy="149" rx="23" ry="23" fill="#8d8d8d"/>
    <ellipse cx="358" cy="149" rx="12" ry="12" fill="#6b6b6b"/>
    <path d="M358 84l48-4 20 15-54 6z" fill="#ffcb57" opacity="0.8"/>
    <path d="M387 81l56 11-30 14-41-8z" fill="#d95050" opacity="0.8"/>
    <path d="M221 91h14" stroke="#444" stroke-width="6" stroke-linecap="round"/>
    <path d="M249 88h14" stroke="#444" stroke-width="6" stroke-linecap="round"/>
    <path d="M276 85h14" stroke="#444" stroke-width="6" stroke-linecap="round"/>
  </g>
</svg>
